<svg xmlns="http://www.w3.org/2000/svg" viewBox="0 0 512 512">
  <defs>
    <linearGradient id="g" x1="0%" y1="0%" x2="100%" y2="100%">
      <stop offset="0%" stop-color="#f97316"/>
      <stop offset="100%" stop-color="#f59e0b"/>
    </linearGradient>
  </defs>
  <!-- Background circle -->
  <circle cx="256" cy="256" r="256" fill="#0a0a0f"/>
  <!-- Anvil body -->
  <path d="M128 280 h256 v40 q0 20-20 20 H148 q-20 0-20-20 Z" fill="url(#g)"/>
  <!-- Anvil top (horn) -->
  <path d="M160 240 h192 q16 0 24 16 l16 24 H128 l16-24 q8-16 16-16Z" fill="url(#g)" opacity="0.9"/>
  <!-- Anvil horn left -->
  <path d="M100 264 h40 v16 H108 q-8 0-8-8Z" fill="url(#g)" opacity="0.8"/>
  <!-- Lightning bolt / spark -->
  <path d="M280 100 L240 200 L280 200 L230 320 L290 190 L250 190 Z" fill="#fbbf24" opacity="0.95"/>
  <!-- Small sparks -->
  <circle cx="200" cy="160" r="4" fill="#fde68a" opacity="0.7"/>
  <circle cx="310" cy="140" r="3" fill="#fde68a" opacity="0.6"/>
  <circle cx="190" cy="130" r="2.5" fill="#fde68a" opacity="0.5"/>
  <!-- API brackets -->
  <text x="140" y="420" font-family="monospace" font-weight="bold" font-size="72" fill="#f97316" opacity="0.6">{</text>
  <text x="340" y="420" font-family="monospace" font-weight="bold" font-size="72" fill="#f97316" opacity="0.6">}</text>
  <!-- Base/pedestal -->
  <rect x="180" y="340" width="152" height="16" rx="4" fill="url(#g)" opacity="0.5"/>
</svg>
